<svg width="40" height="40" viewBox="0 0 40 40" fill="none" xmlns="http://www.w3.org/2000/svg">
  <defs>
    <linearGradient id="flame" x1="20" y1="3" x2="20" y2="37" gradientUnits="userSpaceOnUse">
      <stop stop-color="#FF8A3D"/>
      <stop offset="1" stop-color="#FF5A1F"/>
    </linearGradient>
  </defs>
  <path d="M20 3c1.8 5.6-2.7 8.2-4.7 11.3-1.5 2.3-2 4.2-1.6 6.1.3 1.5 1.2 2.8 2.4 3.6-.5-1.7-.2-3.3 1-4.9 1.1-1.5 1.6-2.7 1.5-4 1.9 1.6 3.4 3.6 3.9 6 .6 2.8-.4 5.3-2.3 7 4.7-1 8.1-4.8 8.1-9.6 0-3.6-1.9-6.4-3.8-8.8C25.6 12 22.7 8.6 20 3Z" fill="url(#flame)"/>
  <path d="M16.8 28.5c-2 1.3-3.2 3.2-3.2 5.4 0 .8.2 1.5.5 2.1-2.6-1.2-4.4-3.8-4.4-6.9 0-2.1.9-3.8 2-5.3.2 2 1.3 3.7 3 4.7.7.4 1.5.3 2.1 0Z" fill="url(#flame)" opacity="0.85"/>
</svg>
